# xmcd CD database file
#
# Track frame offsets:
#	150
#	12666
#	37012
#	51113
#	63527
#	75878
#	94073
#	107182
#	124099
#	139910
#	155198
#	167239
#	179591
#	194205
#	207409
#	219130
#
# Disc length: 3114 seconds
#
# Revision: 0
# Processed by: cddbd v1.5.2PL0 Copyright (c) Steve Scherf et al.
# Submitted via: CDex 1.51
#
DISCID=f20c2810
DTITLE=Eddie Cusic - Leland Mississippi Blues
DYEAR=2011
DGENRE=Blues
TTITLE0=Gonna Lose A Good Man
TTITLE1=Worry You Off My Mind
TTITLE2=Pretty Thing
TTITLE3=Cut You Loose
TTITLE4=Feelin' Good
TTITLE5=Ludella
TTITLE6=Big Boss Man
TTITLE7=Catfish Blues
TTITLE8=Little Angel Child
TTITLE9=Reconsider Baby
TTITLE10=I Walk The Water
TTITLE11=Stop Arguing Over Me
TTITLE12=Hoochie Coochie Man
TTITLE13=Good Morning Little School Girl
TTITLE14=You Don`t Have To Go
TTITLE15=You Don`t Love Me
EXTD=YEAR: 2011
EXTT0=
EXTT1=
EXTT2=
EXTT3=
EXTT4=
EXTT5=
EXTT6=
EXTT7=
EXTT8=
EXTT9=
EXTT10=
EXTT11=
EXTT12=
EXTT13=
EXTT14=
EXTT15=
PLAYORDER=
